<mxfile host="Electron" agent="Mozilla/5.0 (Windows NT 10.0; Win64; x64) AppleWebKit/537.36 (KHTML, like Gecko) draw.io/24.7.17 Chrome/128.0.6613.36 Electron/32.0.1 Safari/537.36" version="24.7.17">
  <diagram name="Page-1" id="pB9viTT88kO5Hr72rYwQ">
    <mxGraphModel dx="1295" dy="758" grid="1" gridSize="10" guides="1" tooltips="1" connect="1" arrows="1" fold="1" page="1" pageScale="1" pageWidth="850" pageHeight="1100" math="0" shadow="0">
      <root>
        <mxCell id="0" />
        <mxCell id="1" parent="0" />
        <mxCell id="UJfu7aSXaaGy_ZVyh0KF-1" value="Supplier Management Process (Manual)" style="swimlane;childLayout=stackLayout;resizeParent=1;resizeParentMax=0;startSize=20;html=1;" parent="1" vertex="1">
          <mxGeometry x="160.00000000000045" y="40" width="410" height="1090" as="geometry" />
        </mxCell>
        <mxCell id="UJfu7aSXaaGy_ZVyh0KF-2" value="owner" style="swimlane;startSize=20;html=1;" parent="UJfu7aSXaaGy_ZVyh0KF-1" vertex="1">
          <mxGeometry y="20" width="410" height="1070" as="geometry" />
        </mxCell>
        <mxCell id="UJfu7aSXaaGy_ZVyh0KF-3" value="" style="strokeWidth=2;html=1;shape=mxgraph.flowchart.start_2;whiteSpace=wrap;fillColor=#000000;" parent="UJfu7aSXaaGy_ZVyh0KF-2" vertex="1">
          <mxGeometry x="209.99999999999955" y="30" width="30" height="30" as="geometry" />
        </mxCell>
        <mxCell id="UJfu7aSXaaGy_ZVyh0KF-4" value="Initiates Supplier Order" style="rounded=1;whiteSpace=wrap;html=1;" parent="UJfu7aSXaaGy_ZVyh0KF-2" vertex="1">
          <mxGeometry x="165" y="110" width="120" height="50" as="geometry" />
        </mxCell>
        <mxCell id="UJfu7aSXaaGy_ZVyh0KF-5" value="Identify Required Items" style="rounded=1;whiteSpace=wrap;html=1;" parent="UJfu7aSXaaGy_ZVyh0KF-2" vertex="1">
          <mxGeometry x="165" y="190" width="120" height="50" as="geometry" />
        </mxCell>
        <mxCell id="UJfu7aSXaaGy_ZVyh0KF-6" value="Wait and retry" style="rounded=1;whiteSpace=wrap;html=1;" parent="UJfu7aSXaaGy_ZVyh0KF-2" vertex="1">
          <mxGeometry x="280" y="380" width="120" height="50" as="geometry" />
        </mxCell>
        <mxCell id="UJfu7aSXaaGy_ZVyh0KF-7" value="Proceed to place the order" style="rounded=1;whiteSpace=wrap;html=1;" parent="UJfu7aSXaaGy_ZVyh0KF-2" vertex="1">
          <mxGeometry x="50" y="380" width="120" height="50" as="geometry" />
        </mxCell>
        <mxCell id="UJfu7aSXaaGy_ZVyh0KF-8" value="" style="endArrow=classic;html=1;rounded=0;exitX=0.5;exitY=1;exitDx=0;exitDy=0;exitPerimeter=0;" parent="UJfu7aSXaaGy_ZVyh0KF-2" source="UJfu7aSXaaGy_ZVyh0KF-3" target="UJfu7aSXaaGy_ZVyh0KF-4" edge="1">
          <mxGeometry width="50" height="50" relative="1" as="geometry">
            <mxPoint x="189.99999999999955" y="360" as="sourcePoint" />
            <mxPoint x="239.99999999999955" y="310" as="targetPoint" />
          </mxGeometry>
        </mxCell>
        <mxCell id="UJfu7aSXaaGy_ZVyh0KF-9" value="" style="endArrow=classic;html=1;rounded=0;exitX=0.5;exitY=1;exitDx=0;exitDy=0;" parent="UJfu7aSXaaGy_ZVyh0KF-2" source="UJfu7aSXaaGy_ZVyh0KF-4" target="UJfu7aSXaaGy_ZVyh0KF-5" edge="1">
          <mxGeometry width="50" height="50" relative="1" as="geometry">
            <mxPoint x="179.99999999999955" y="330" as="sourcePoint" />
            <mxPoint x="229.99999999999955" y="280" as="targetPoint" />
          </mxGeometry>
        </mxCell>
        <mxCell id="UJfu7aSXaaGy_ZVyh0KF-15" value="" style="ellipse;html=1;shape=endState;fillColor=#000000;strokeColor=#000000;" parent="UJfu7aSXaaGy_ZVyh0KF-2" vertex="1">
          <mxGeometry x="205" y="1010" width="30" height="30" as="geometry" />
        </mxCell>
        <mxCell id="UJfu7aSXaaGy_ZVyh0KF-24" value="Place Order" style="rounded=1;whiteSpace=wrap;html=1;" parent="UJfu7aSXaaGy_ZVyh0KF-2" vertex="1">
          <mxGeometry x="159.99999999999955" y="520" width="120" height="60" as="geometry" />
        </mxCell>
        <mxCell id="UJfu7aSXaaGy_ZVyh0KF-25" value="Track Delivery" style="rounded=1;whiteSpace=wrap;html=1;" parent="UJfu7aSXaaGy_ZVyh0KF-2" vertex="1">
          <mxGeometry x="159.99999999999955" y="620" width="120" height="60" as="geometry" />
        </mxCell>
        <mxCell id="UJfu7aSXaaGy_ZVyh0KF-27" value="Receive items" style="rounded=1;whiteSpace=wrap;html=1;" parent="UJfu7aSXaaGy_ZVyh0KF-2" vertex="1">
          <mxGeometry x="159.99999999999955" y="750" width="120" height="60" as="geometry" />
        </mxCell>
        <mxCell id="UJfu7aSXaaGy_ZVyh0KF-26" value="Update Inventory Log" style="rounded=1;whiteSpace=wrap;html=1;" parent="UJfu7aSXaaGy_ZVyh0KF-2" vertex="1">
          <mxGeometry x="159.99999999999955" y="880" width="120" height="60" as="geometry" />
        </mxCell>
        <mxCell id="UJfu7aSXaaGy_ZVyh0KF-23" value="&amp;nbsp;Is Supplier Available?" style="rhombus;whiteSpace=wrap;html=1;" parent="UJfu7aSXaaGy_ZVyh0KF-2" vertex="1">
          <mxGeometry x="184.99999999999955" y="260" width="80" height="80" as="geometry" />
        </mxCell>
        <mxCell id="UJfu7aSXaaGy_ZVyh0KF-28" value="" style="endArrow=classic;html=1;rounded=0;exitX=0.5;exitY=1;exitDx=0;exitDy=0;" parent="UJfu7aSXaaGy_ZVyh0KF-2" source="UJfu7aSXaaGy_ZVyh0KF-5" target="UJfu7aSXaaGy_ZVyh0KF-23" edge="1">
          <mxGeometry width="50" height="50" relative="1" as="geometry">
            <mxPoint x="369.99999999999955" y="320" as="sourcePoint" />
            <mxPoint x="419.99999999999955" y="270" as="targetPoint" />
          </mxGeometry>
        </mxCell>
        <mxCell id="UJfu7aSXaaGy_ZVyh0KF-29" value="" style="endArrow=classic;html=1;rounded=0;exitX=1;exitY=0.5;exitDx=0;exitDy=0;entryX=0.5;entryY=0;entryDx=0;entryDy=0;" parent="UJfu7aSXaaGy_ZVyh0KF-2" source="UJfu7aSXaaGy_ZVyh0KF-23" target="UJfu7aSXaaGy_ZVyh0KF-6" edge="1">
          <mxGeometry width="50" height="50" relative="1" as="geometry">
            <mxPoint x="369.99999999999955" y="320" as="sourcePoint" />
            <mxPoint x="419.99999999999955" y="270" as="targetPoint" />
            <Array as="points">
              <mxPoint x="339.99999999999955" y="300" />
            </Array>
          </mxGeometry>
        </mxCell>
        <mxCell id="UJfu7aSXaaGy_ZVyh0KF-30" value="" style="endArrow=classic;html=1;rounded=0;exitX=0;exitY=0.5;exitDx=0;exitDy=0;entryX=0.5;entryY=0;entryDx=0;entryDy=0;" parent="UJfu7aSXaaGy_ZVyh0KF-2" source="UJfu7aSXaaGy_ZVyh0KF-23" target="UJfu7aSXaaGy_ZVyh0KF-7" edge="1">
          <mxGeometry width="50" height="50" relative="1" as="geometry">
            <mxPoint x="369.99999999999955" y="320" as="sourcePoint" />
            <mxPoint x="419.99999999999955" y="270" as="targetPoint" />
            <Array as="points">
              <mxPoint x="109.99999999999955" y="300" />
            </Array>
          </mxGeometry>
        </mxCell>
        <mxCell id="UJfu7aSXaaGy_ZVyh0KF-31" value="no" style="text;html=1;align=center;verticalAlign=middle;whiteSpace=wrap;rounded=0;" parent="UJfu7aSXaaGy_ZVyh0KF-2" vertex="1">
          <mxGeometry x="279.99999999999955" y="270" width="60" height="30" as="geometry" />
        </mxCell>
        <mxCell id="UJfu7aSXaaGy_ZVyh0KF-32" value="yes" style="text;html=1;align=center;verticalAlign=middle;whiteSpace=wrap;rounded=0;" parent="UJfu7aSXaaGy_ZVyh0KF-2" vertex="1">
          <mxGeometry x="119.99999999999955" y="270" width="60" height="30" as="geometry" />
        </mxCell>
        <mxCell id="UJfu7aSXaaGy_ZVyh0KF-35" value="" style="line;strokeWidth=7;rotatable=0;dashed=0;labelPosition=right;align=left;verticalAlign=middle;spacingTop=0;spacingLeft=6;points=[];portConstraint=eastwest;" parent="UJfu7aSXaaGy_ZVyh0KF-2" vertex="1">
          <mxGeometry x="90" y="470" width="290" height="10" as="geometry" />
        </mxCell>
        <mxCell id="UJfu7aSXaaGy_ZVyh0KF-36" value="" style="endArrow=classic;html=1;rounded=0;exitX=0.5;exitY=1;exitDx=0;exitDy=0;entryX=0.075;entryY=0.681;entryDx=0;entryDy=0;entryPerimeter=0;" parent="UJfu7aSXaaGy_ZVyh0KF-2" source="UJfu7aSXaaGy_ZVyh0KF-7" target="UJfu7aSXaaGy_ZVyh0KF-35" edge="1">
          <mxGeometry width="50" height="50" relative="1" as="geometry">
            <mxPoint x="249.99999999999955" y="530" as="sourcePoint" />
            <mxPoint x="299.99999999999955" y="480" as="targetPoint" />
          </mxGeometry>
        </mxCell>
        <mxCell id="UJfu7aSXaaGy_ZVyh0KF-37" value="" style="endArrow=classic;html=1;rounded=0;exitX=0.311;exitY=1.052;exitDx=0;exitDy=0;exitPerimeter=0;entryX=0.787;entryY=0.529;entryDx=0;entryDy=0;entryPerimeter=0;" parent="UJfu7aSXaaGy_ZVyh0KF-2" source="UJfu7aSXaaGy_ZVyh0KF-6" target="UJfu7aSXaaGy_ZVyh0KF-35" edge="1">
          <mxGeometry width="50" height="50" relative="1" as="geometry">
            <mxPoint x="249.99999999999955" y="530" as="sourcePoint" />
            <mxPoint x="299.99999999999955" y="480" as="targetPoint" />
          </mxGeometry>
        </mxCell>
        <mxCell id="UJfu7aSXaaGy_ZVyh0KF-38" value="" style="endArrow=classic;html=1;rounded=0;exitX=0.448;exitY=0.91;exitDx=0;exitDy=0;exitPerimeter=0;" parent="UJfu7aSXaaGy_ZVyh0KF-2" source="UJfu7aSXaaGy_ZVyh0KF-35" target="UJfu7aSXaaGy_ZVyh0KF-24" edge="1">
          <mxGeometry width="50" height="50" relative="1" as="geometry">
            <mxPoint x="249.99999999999955" y="670" as="sourcePoint" />
            <mxPoint x="299.99999999999955" y="620" as="targetPoint" />
            <Array as="points" />
          </mxGeometry>
        </mxCell>
        <mxCell id="UJfu7aSXaaGy_ZVyh0KF-39" value="" style="endArrow=classic;html=1;rounded=0;exitX=0.5;exitY=1;exitDx=0;exitDy=0;entryX=0.5;entryY=0;entryDx=0;entryDy=0;" parent="UJfu7aSXaaGy_ZVyh0KF-2" source="UJfu7aSXaaGy_ZVyh0KF-24" target="UJfu7aSXaaGy_ZVyh0KF-25" edge="1">
          <mxGeometry width="50" height="50" relative="1" as="geometry">
            <mxPoint x="249.99999999999955" y="670" as="sourcePoint" />
            <mxPoint x="299.99999999999955" y="620" as="targetPoint" />
          </mxGeometry>
        </mxCell>
        <mxCell id="UJfu7aSXaaGy_ZVyh0KF-40" value="" style="endArrow=classic;html=1;rounded=0;exitX=0.5;exitY=1;exitDx=0;exitDy=0;entryX=0.5;entryY=0;entryDx=0;entryDy=0;" parent="UJfu7aSXaaGy_ZVyh0KF-2" source="UJfu7aSXaaGy_ZVyh0KF-25" target="UJfu7aSXaaGy_ZVyh0KF-27" edge="1">
          <mxGeometry width="50" height="50" relative="1" as="geometry">
            <mxPoint x="169.99999999999955" y="760" as="sourcePoint" />
            <mxPoint x="219.99999999999955" y="710" as="targetPoint" />
          </mxGeometry>
        </mxCell>
        <mxCell id="UJfu7aSXaaGy_ZVyh0KF-41" value="" style="endArrow=classic;html=1;rounded=0;entryX=0.5;entryY=0;entryDx=0;entryDy=0;exitX=0.5;exitY=1;exitDx=0;exitDy=0;" parent="UJfu7aSXaaGy_ZVyh0KF-2" source="UJfu7aSXaaGy_ZVyh0KF-27" target="UJfu7aSXaaGy_ZVyh0KF-26" edge="1">
          <mxGeometry width="50" height="50" relative="1" as="geometry">
            <mxPoint x="169.99999999999955" y="830" as="sourcePoint" />
            <mxPoint x="229.99999999999955" y="820" as="targetPoint" />
          </mxGeometry>
        </mxCell>
        <mxCell id="UJfu7aSXaaGy_ZVyh0KF-42" value="" style="endArrow=classic;html=1;rounded=0;entryX=0.5;entryY=0;entryDx=0;entryDy=0;exitX=0.5;exitY=1;exitDx=0;exitDy=0;" parent="UJfu7aSXaaGy_ZVyh0KF-2" source="UJfu7aSXaaGy_ZVyh0KF-26" target="UJfu7aSXaaGy_ZVyh0KF-15" edge="1">
          <mxGeometry width="50" height="50" relative="1" as="geometry">
            <mxPoint x="169.99999999999955" y="900" as="sourcePoint" />
            <mxPoint x="219.99999999999955" y="850" as="targetPoint" />
          </mxGeometry>
        </mxCell>
      </root>
    </mxGraphModel>
  </diagram>
</mxfile>
